<svg width="20" height="20" viewBox="0 0 20 20" fill="none" xmlns="http://www.w3.org/2000/svg">
<g clip-path="url(#clip0)">
<path d="M19.3743 8.7494C19.0293 8.7494 18.7493 9.02939 18.7493 9.37436V16.4514L13.7496 18.4513V11.8742C13.7496 11.5292 13.4696 11.2492 13.1247 11.2492C12.7797 11.2492 12.4997 11.5292 12.4997 11.8742V18.4501L7.50002 16.4502V6.54829L10.3961 7.70697C10.7123 7.83446 11.0798 7.67947 11.2085 7.35824C11.3373 7.03826 11.181 6.67453 10.8598 6.54579L7.11879 5.04838C7.11879 5.04838 7.11879 5.04838 7.11754 5.04838L7.10754 5.04463C6.9588 4.98463 6.79256 4.98463 6.64382 5.04463L6.63257 5.04838C6.63257 5.04838 6.63257 5.04838 6.63132 5.04838L0.392964 7.54448C0.156729 7.63947 0.000488281 7.86821 0.000488281 8.12444V19.3737C0.000488281 19.5812 0.104232 19.775 0.275471 19.8912C0.380465 19.9625 0.501707 19.9987 0.625449 19.9987C0.704194 19.9987 0.782939 19.9837 0.857935 19.9537L6.87506 17.5476L12.8809 19.95C12.8809 19.95 12.8809 19.95 12.8822 19.95L12.8934 19.955C13.0422 20.015 13.2084 20.015 13.3572 19.955L13.3684 19.95C13.3684 19.95 13.3684 19.95 13.3697 19.95L19.608 17.4551C19.843 17.3589 19.9992 17.1301 19.9992 16.8739V9.37436C19.9992 9.02939 19.7193 8.7494 19.3743 8.7494ZM6.2501 16.4502L1.25041 18.4501V8.54691L6.2501 6.54704V16.4502Z" fill="white"/>
<path d="M15.6249 2.49988C14.5912 2.49988 13.75 3.34108 13.75 4.37476C13.75 5.40845 14.5912 6.24964 15.6249 6.24964C16.6586 6.24964 17.4998 5.40845 17.4998 4.37476C17.4998 3.34108 16.6586 2.49988 15.6249 2.49988ZM15.6249 4.99972C15.2799 4.99972 14.9999 4.71974 14.9999 4.37476C14.9999 4.02978 15.2799 3.7498 15.6249 3.7498C15.9699 3.7498 16.2498 4.02978 16.2498 4.37476C16.2498 4.71974 15.9699 4.99972 15.6249 4.99972Z" fill="white"/>
<path d="M15.6247 0C13.2124 0 11.25 1.96238 11.25 4.37473C11.25 6.61959 14.7598 10.5956 15.1598 11.0418C15.2785 11.1731 15.4472 11.2493 15.6247 11.2493C15.8022 11.2493 15.971 11.1731 16.0897 11.0418C16.4897 10.5956 19.9995 6.61959 19.9995 4.37473C19.9995 1.96238 18.0371 0 15.6247 0ZM15.6247 9.67065C14.2598 8.052 12.4999 5.56715 12.4999 4.37473C12.4999 2.65233 13.9023 1.24992 15.6247 1.24992C17.3471 1.24992 18.7495 2.65233 18.7495 4.37473C18.7495 5.5659 16.9896 8.052 15.6247 9.67065Z" fill="white"/>
</g>
<defs>
<clipPath id="clip0">
<rect width="20" height="20" fill="white"/>
</clipPath>
</defs>
</svg>
